PathFileType	4	(X/Y/Z)	S240501-1155_P07_T01_0-394.trc
DataRate	CameraRate	NumFrames	NumMarkers	Units	OrigDataRate	OrigDataStartFrame	OrigNumFrames
60.0	60.0	33	13	m	60.0	197	394
Frame#	Time	Nose			LEye			LEar			LShoulder			LElbow			LWrist			LHip			REye			REar			RShoulder			RElbow			RWrist			RHip		
		X1	Y1	Z1	X2	Y2	Z2	X3	Y3	Z3	X4	Y4	Z4	X5	Y5	Z5	X6	Y6	Z6	X7	Y7	Z7	X8	Y8	Z8	X9	Y9	Z9	X10	Y10	Z10	X11	Y11	Z11	X12	Y12	Z12	X13	Y13	Z13

198	3.300	-0.06674	1.68490	0.15923	-0.09176	1.65062	0.18382	-0.05859	1.59551	0.27665	0.10939	1.52037	0.24586	0.25514	1.54797	0.04956	0.31497	1.61203	-0.16915	0.53366	1.60220	0.21426	-0.09235	1.71538	0.18510	-0.06508	1.75792	0.28312	0.10707	1.84277	0.32232	0.33134	1.93088	0.26526	0.32329	1.90313	0.04731	0.52496	1.81811	0.21622
199	3.317	-0.06769	1.68389	0.15956	-0.09208	1.65022	0.18500	-0.05880	1.59532	0.27721	0.10964	1.52015	0.24614	0.25536	1.54773	0.04894	0.31511	1.61237	-0.16891	0.53366	1.60220	0.21426	-0.09276	1.71506	0.18568	-0.06512	1.75780	0.28331	0.10684	1.84226	0.32258	0.33125	1.93080	0.26544	0.32362	1.90305	0.04726	0.52496	1.81811	0.21622
200	3.333	-0.06858	1.68269	0.15997	-0.09237	1.64974	0.18660	-0.05899	1.59509	0.27767	0.10989	1.52005	0.24631	0.25564	1.54749	0.04847	0.31539	1.61261	-0.16852	0.53366	1.60220	0.21426	-0.09328	1.71461	0.18643	-0.06516	1.75764	0.28350	0.10666	1.84182	0.32284	0.33111	1.93069	0.26567	0.32393	1.90292	0.04725	0.52496	1.81811	0.21622
201	3.350	-0.06929	1.68156	0.16051	-0.09259	1.64918	0.18855	-0.05912	1.59475	0.27803	0.11013	1.52015	0.24635	0.25591	1.54738	0.04830	0.31569	1.61264	-0.16812	0.53366	1.60220	0.21426	-0.09395	1.71407	0.18742	-0.06525	1.75748	0.28374	0.10654	1.84164	0.32316	0.33110	1.93070	0.26589	0.32413	1.90276	0.04735	0.52496	1.81811	0.21622
202	3.367	-0.06974	1.68071	0.16119	-0.09273	1.64853	0.19058	-0.05916	1.59425	0.27842	0.11040	1.52044	0.24623	0.25614	1.54743	0.04850	0.31593	1.61241	-0.16775	0.53366	1.60220	0.21426	-0.09478	1.71347	0.18862	-0.06542	1.75732	0.28406	0.10650	1.84171	0.32350	0.33125	1.93088	0.26610	0.32422	1.90259	0.04749	0.52496	1.81811	0.21622
203	3.383	-0.06993	1.68018	0.16208	-0.09284	1.64782	0.19238	-0.05915	1.59360	0.27895	0.11074	1.52075	0.24592	0.25633	1.54759	0.04909	0.31607	1.61198	-0.16727	0.53366	1.60220	0.21426	-0.09573	1.71281	0.18987	-0.06570	1.75719	0.28445	0.10658	1.84191	0.32381	0.33149	1.93109	0.26633	0.32423	1.90238	0.04754	0.52496	1.81811	0.21622
204	3.400	-0.06996	1.67992	0.16321	-0.09301	1.64710	0.19376	-0.05911	1.59292	0.27969	0.11110	1.52095	0.24560	0.25649	1.54775	0.04995	0.31611	1.61147	-0.16654	0.53366	1.60220	0.21426	-0.09670	1.71209	0.19102	-0.06608	1.75709	0.28490	0.10675	1.84213	0.32408	0.33169	1.93121	0.26662	0.32418	1.90211	0.04733	0.52496	1.81811	0.21622
205	3.417	-0.06992	1.67976	0.16454	-0.09333	1.64642	0.19475	-0.05904	1.59242	0.28062	0.11139	1.52099	0.24555	0.25664	1.54777	0.05095	0.31605	1.61098	-0.16555	0.53366	1.60220	0.21426	-0.09751	1.71129	0.19199	-0.06651	1.75693	0.28541	0.10692	1.84228	0.32430	0.33168	1.93125	0.26687	0.32405	1.90183	0.04673	0.52496	1.81811	0.21622
206	3.433	-0.06992	1.67954	0.16592	-0.09385	1.64579	0.19543	-0.05895	1.59218	0.28168	0.11155	1.52088	0.24593	0.25684	1.54751	0.05196	0.31579	1.61056	-0.16445	0.53366	1.60220	0.21426	-0.09802	1.71052	0.19274	-0.06692	1.75666	0.28598	0.10695	1.84232	0.32447	0.33141	1.93128	0.26699	0.32376	1.90159	0.04575	0.52496	1.81811	0.21622
207	3.450	-0.07005	1.67915	0.16723	-0.09453	1.64524	0.19589	-0.05890	1.59206	0.28292	0.11156	1.52056	0.24675	0.25713	1.54687	0.05298	0.31523	1.61023	-0.16344	0.53366	1.60220	0.21426	-0.09816	1.70992	0.19328	-0.06725	1.75622	0.28662	0.10673	1.84227	0.32460	0.33091	1.93136	0.26696	0.32331	1.90145	0.04468	0.52496	1.81811	0.21622
208	3.467	-0.07033	1.67859	0.16838	-0.09523	1.64479	0.19622	-0.05895	1.59186	0.28434	0.11140	1.51992	0.24801	0.25754	1.54575	0.05411	0.31431	1.61008	-0.16264	0.53366	1.60220	0.21426	-0.09801	1.70954	0.19365	-0.06748	1.75569	0.28733	0.10630	1.84214	0.32470	0.33042	1.93147	0.26690	0.32273	1.90144	0.04382	0.52496	1.81811	0.21622
209	3.483	-0.07073	1.67800	0.16937	-0.09580	1.64445	0.19655	-0.05913	1.59144	0.28581	0.11110	1.51901	0.24959	0.25807	1.54423	0.05551	0.31309	1.61014	-0.16189	0.53366	1.60220	0.21426	-0.09775	1.70929	0.19395	-0.06758	1.75517	0.28809	0.10579	1.84189	0.32477	0.33014	1.93156	0.26695	0.32211	1.90163	0.04311	0.52496	1.81811	0.21622
210	3.500	-0.07120	1.67749	0.17020	-0.09610	1.64416	0.19693	-0.05940	1.59082	0.28709	0.11073	1.51800	0.25125	0.25872	1.54243	0.05728	0.31172	1.61040	-0.16077	0.53366	1.60220	0.21426	-0.09758	1.70904	0.19426	-0.06755	1.75479	0.28891	0.10538	1.84148	0.32475	0.33016	1.93159	0.26718	0.32152	1.90207	0.04216	0.52496	1.81811	0.21622
211	3.517	-0.07170	1.67709	0.17089	-0.09612	1.64383	0.19735	-0.05962	1.59012	0.28804	0.11034	1.51711	0.25274	0.25951	1.54050	0.05946	0.31032	1.61076	-0.15892	0.53366	1.60220	0.21426	-0.09761	1.70873	0.19468	-0.06741	1.75455	0.28982	0.10517	1.84095	0.32455	0.33044	1.93155	0.26757	0.32103	1.90276	0.04063	0.52496	1.81811	0.21622
212	3.533	-0.07211	1.67684	0.17148	-0.09589	1.64343	0.19778	-0.05971	1.58944	0.28869	0.10996	1.51644	0.25396	0.26044	1.53847	0.06201	0.30888	1.61109	-0.15629	0.53366	1.60220	0.21426	-0.09784	1.70835	0.19523	-0.06723	1.75441	0.29083	0.10513	1.84046	0.32412	0.33086	1.93137	0.26810	0.32067	1.90361	0.03865	0.52496	1.81811	0.21622
213	3.550	-0.07232	1.67672	0.17202	-0.09550	1.64298	0.19818	-0.05967	1.58887	0.28915	0.10963	1.51589	0.25490	0.26155	1.53632	0.06480	0.30724	1.61128	-0.15308	0.53366	1.60220	0.21426	-0.09819	1.70791	0.19592	-0.06708	1.75428	0.29184	0.10514	1.84012	0.32347	0.33126	1.93101	0.26871	0.32047	1.90446	0.03677	0.52496	1.81811	0.21622
214	3.567	-0.07231	1.67670	0.17252	-0.09508	1.64249	0.19848	-0.05955	1.58845	0.28956	0.10936	1.51530	0.25567	0.26297	1.53396	0.06767	0.30516	1.61127	-0.14959	0.53366	1.60220	0.21426	-0.09854	1.70739	0.19669	-0.06701	1.75409	0.29273	0.10511	1.83987	0.32261	0.33138	1.93051	0.26926	0.32044	1.90516	0.03555	0.52496	1.81811	0.21622
215	3.583	-0.07215	1.67670	0.17294	-0.09479	1.64195	0.19864	-0.05943	1.58820	0.29000	0.10918	1.51460	0.25635	0.26481	1.53125	0.07052	0.30242	1.61104	-0.14589	0.53366	1.60220	0.21426	-0.09880	1.70673	0.19745	-0.06704	1.75376	0.29348	0.10492	1.83950	0.32156	0.33101	1.92993	0.26965	0.32058	1.90565	0.03529	0.52496	1.81811	0.21622
216	3.600	-0.07198	1.67665	0.17328	-0.09476	1.64133	0.19869	-0.05933	1.58807	0.29048	0.10911	1.51383	0.25696	0.26712	1.52810	0.07337	0.29894	1.61062	-0.14185	0.53366	1.60220	0.21426	-0.09895	1.70598	0.19812	-0.06709	1.75325	0.29418	0.10459	1.83891	0.32028	0.33020	1.92939	0.26988	0.32086	1.90597	0.03605	0.52496	1.81811	0.21622
217	3.617	-0.07189	1.67644	0.17355	-0.09497	1.64058	0.19872	-0.05921	1.58793	0.29090	0.10912	1.51305	0.25749	0.26985	1.52452	0.07634	0.29486	1.61011	-0.13736	0.53366	1.60220	0.21426	-0.09912	1.70525	0.19867	-0.06710	1.75254	0.29491	0.10421	1.83816	0.31879	0.32931	1.92898	0.27008	0.32120	1.90615	0.03755	0.52496	1.81811	0.21622
218	3.633	-0.07191	1.67602	0.17380	-0.09531	1.63975	0.19879	-0.05904	1.58766	0.29116	0.10917	1.51240	0.25792	0.27292	1.52070	0.07954	0.29032	1.60960	-0.13248	0.53366	1.60220	0.21426	-0.09934	1.70466	0.19915	-0.06699	1.75170	0.29567	0.10395	1.83737	0.31733	0.32867	1.92870	0.27030	0.32150	1.90630	0.03904	0.52496	1.81811	0.21622
219	3.650	-0.07199	1.67536	0.17403	-0.09562	1.63896	0.19894	-0.05879	1.58721	0.29126	0.10928	1.51189	0.25839	0.27623	1.51685	0.08299	0.28544	1.60917	-0.12731	0.53366	1.60220	0.21426	-0.09960	1.70423	0.19962	-0.06680	1.75092	0.29643	0.10393	1.83668	0.31622	0.32845	1.92849	0.27052	0.32175	1.90660	0.03977	0.52496	1.81811	0.21622
220	3.667	-0.07204	1.67458	0.17421	-0.09579	1.63831	0.19921	-0.05849	1.58668	0.29128	0.10945	1.51141	0.25900	0.27960	1.51316	0.08659	0.28033	1.60890	-0.12187	0.53366	1.60220	0.21426	-0.09979	1.70397	0.20009	-0.06660	1.75033	0.29713	0.10417	1.83616	0.31558	0.32858	1.92823	0.27072	0.32196	1.90716	0.03963	0.52496	1.81811	0.21622
221	3.683	-0.07198	1.67381	0.17434	-0.09578	1.63785	0.19959	-0.05815	1.58624	0.29125	0.10965	1.51079	0.25980	0.28285	1.50972	0.09024	0.27514	1.60882	-0.11611	0.53366	1.60220	0.21426	-0.09983	1.70385	0.20058	-0.06647	1.75001	0.29766	0.10458	1.83589	0.31520	0.32885	1.92786	0.27092	0.32207	1.90790	0.03907	0.52496	1.81811	0.21622
222	3.700	-0.07176	1.67315	0.17441	-0.09558	1.63753	0.19998	-0.05780	1.58599	0.29111	0.10986	1.50990	0.26082	0.28585	1.50652	0.09397	0.26999	1.60893	-0.10985	0.53366	1.60220	0.21426	-0.09967	1.70376	0.20103	-0.06653	1.74997	0.29789	0.10503	1.83592	0.31472	0.32913	1.92743	0.27106	0.32202	1.90846	0.03855	0.52496	1.81811	0.21622
223	3.717	-0.07144	1.67259	0.17442	-0.09525	1.63727	0.20026	-0.05748	1.58585	0.29084	0.11009	1.50874	0.26210	0.28866	1.50347	0.09791	0.26490	1.60927	-0.10281	0.53366	1.60220	0.21426	-0.09930	1.70360	0.20138	-0.06687	1.75021	0.29769	0.10543	1.83623	0.31387	0.32937	1.92707	0.27098	0.32178	1.90851	0.03820	0.52496	1.81811	0.21622
224	3.733	-0.07109	1.67207	0.17439	-0.09484	1.63696	0.20038	-0.05722	1.58560	0.29051	0.11032	1.50739	0.26351	0.29143	1.50049	0.10217	0.25985	1.60983	-0.09495	0.53366	1.60220	0.21426	-0.09878	1.70336	0.20155	-0.06747	1.75059	0.29704	0.10570	1.83671	0.31265	0.32942	1.92689	0.27046	0.32145	1.90795	0.03798	0.52496	1.81811	0.21622
225	3.750	-0.07077	1.67158	0.17436	-0.09440	1.63656	0.20037	-0.05700	1.58505	0.29030	0.11049	1.50604	0.26479	0.29430	1.49757	0.10664	0.25480	1.61053	-0.08644	0.53366	1.60220	0.21426	-0.09820	1.70304	0.20143	-0.06813	1.75083	0.29610	0.10577	1.83722	0.31131	0.32905	1.92689	0.26931	0.32109	1.90710	0.03771	0.52496	1.81811	0.21622
226	3.767	-0.07040	1.67114	0.17440	-0.09394	1.63605	0.20027	-0.05676	1.58418	0.29039	0.11064	1.50488	0.26574	0.29734	1.49467	0.11113	0.24976	1.61114	-0.07754	0.53366	1.60220	0.21426	-0.09763	1.70270	0.20103	-0.06863	1.75072	0.29522	0.10564	1.83765	0.31007	0.32808	1.92705	0.26734	0.32067	1.90632	0.03698	0.52496	1.81811	0.21622
227	3.783	-0.06987	1.67074	0.17453	-0.09346	1.63546	0.20009	-0.05648	1.58310	0.29087	0.11085	1.50402	0.26635	0.30045	1.49177	0.11550	0.24461	1.61143	-0.06845	0.53366	1.60220	0.21426	-0.09705	1.70235	0.20043	-0.06887	1.75025	0.29471	0.10536	1.83797	0.30905	0.32670	1.92741	0.26447	0.32017	1.90575	0.03549	0.52496	1.81811	0.21622
228	3.800	-0.06913	1.67034	0.17463	-0.09295	1.63478	0.19979	-0.05614	1.58200	0.29166	0.11122	1.50348	0.26669	0.30347	1.48894	0.11974	0.23916	1.61131	-0.05924	0.53366	1.60220	0.21426	-0.09642	1.70195	0.19981	-0.06887	1.74955	0.29460	0.10503	1.83814	0.30835	0.32532	1.92799	0.26092	0.31958	1.90531	0.03356	0.52496	1.81811	0.21622
229	3.817	-0.06819	1.66985	0.17454	-0.09237	1.63403	0.19941	-0.05577	1.58107	0.29252	0.11170	1.50323	0.26685	0.30627	1.48634	0.12374	0.23319	1.61094	-0.04983	0.53366	1.60220	0.21426	-0.09572	1.70145	0.19931	-0.06872	1.74880	0.29469	0.10472	1.83814	0.30805	0.32436	1.92864	0.25748	0.31898	1.90486	0.03207	0.52496	1.81811	0.21622
230	3.833	-0.06714	1.66930	0.17416	-0.09171	1.63322	0.19903	-0.05544	1.58047	0.29315	0.11222	1.50323	0.26690	0.30876	1.48405	0.12731	0.22657	1.61056	-0.04005	0.53366	1.60220	0.21426	-0.09503	1.70079	0.19893	-0.06852	1.74805	0.29475	0.10443	1.83792	0.30814	0.32405	1.92913	0.25511	0.31848	1.90435	0.03165	0.52496	1.81811	0.21622
